<svg xmlns="http://www.w3.org/2000/svg" width="106" height="167" viewBox="0 0 106 167"><defs><linearGradient id="a" x1="50%" x2="50%" y1="0%" y2="100%"><stop offset="0%" stop-color="#4776E6"/><stop offset="100%" stop-color="#8E54E9"/></linearGradient></defs><path fill="none" stroke="url(#a)" stroke-width="2" d="M10.005 164h25.041c.684-9.144 8.406-16.505 17.902-16.999h.103c9.968.507 17.764 8.314 17.949 18.017-.183 10.177-8.143 18.08-18 17.982h-3v25h3.026c14.677.377 26.62 12.273 26.974 27.024C79.647 249.607 67.706 261.5 52.966 262c-14.344-.49-26.077-11.866-26.926-26H1.01c.533 28.278 23.612 51 51.991 51 28.713 0 52-23.26 52-52 0-16.11-7.153-30.531-19.613-40.21l-.854-.663.727-.8c7.095-7.808 10.9-17.742 10.74-28.334C96.163 141.247 76.882 122 53 122c-23.548 0-42.623 18.713-42.995 42z" transform="translate(0 -121)"/></svg>