<svg xmlns="http://www.w3.org/2000/svg" width="44" height="44" viewBox="0 0 44 44"><path fill="#FFF" d="M18 35.6c-2.3 0-4.6-.9-6.4-2.6C9.9 31.3 9 29 9 26.6c0-2.4.9-4.7 2.6-6.4L21.9 9.9C23.1 8.7 24.8 8 26.5 8c1.7 0 3.4.7 4.6 1.9 2.5 2.5 2.5 6.7 0 9.2l-9.5 9.5c-1.5 1.5-4.1 1.5-5.7 0-.8-.8-1.2-1.8-1.2-2.8 0-1.1.4-2.1 1.2-2.8l9.2-9.2c.4-.4 1-.4 1.4 0 .4.4.4 1 0 1.4l-9.2 9.2c-.4.4-.6.9-.6 1.4 0 .5.2 1 .6 1.4.8.8 2.1.8 2.8 0l9.5-9.5c1.8-1.8 1.8-4.6 0-6.4-.9-.9-2-1.3-3.2-1.3-1.2 0-2.3.5-3.2 1.3L13.1 21.6c-1.3 1.3-2.1 3.1-2.1 4.9 0 1.9.7 3.6 2.1 5 2.7 2.7 7.2 2.7 9.9 0l9.9-9.9c.4-.4 1-.4 1.4 0 .4.4.4 1 0 1.4l-9.9 9.9c-1.8 1.8-4.1 2.7-6.4 2.7z"/></svg>