<svg xmlns="http://www.w3.org/2000/svg" xmlns:xlink="http://www.w3.org/1999/xlink" width="64" height="64" viewBox="0 0 64 64"><defs><path id="a" d="M36.818 7.576c-.92 0-1.738.19-2.557.38C32.727 3.408 28.023 0 22.5 0c-5.523 0-10.227 3.41-11.761 7.955-.819-.19-1.637-.379-2.557-.379-4.5 0-8.182 3.41-8.182 7.577s3.682 7.576 8.182 7.576h4.09v11.365c0 2.084 1.842 3.788 4.092 3.788 2.25 0 4.09-1.704 4.09-3.788V22.73h16.364c4.5 0 8.182-3.409 8.182-7.576s-3.682-7.577-8.182-7.577z"/></defs><g fill="none" fill-rule="evenodd"><path stroke="#FFF" stroke-width="2" d="M30 35.294h20m-35 0h8.333m-10-11.529v4.98c0 10.744 4.074 20.61 4.074 31.255h28.519C45.926 49.354 50 39.392 50 28.746v-4.981"/><g transform="translate(10 4)"><use fill="#FFF" xlink:href="#a"/><path stroke="#FFF" stroke-width="2" d="M36.818 8.576c-.667 0-1.175.086-2.331.354l-.883.204-.29-.859C31.884 4.037 27.484 1 22.5 1c-4.983 0-9.384 3.037-10.814 7.275l-.29.859-.883-.204c-1.156-.268-1.664-.354-2.331-.354C4.218 8.576 1 11.556 1 15.153s3.218 6.576 7.182 6.576h5.09v12.365c0 1.513 1.377 2.788 3.092 2.788 1.714 0 3.09-1.275 3.09-2.788V21.73h17.364c3.964 0 7.182-2.98 7.182-6.576 0-3.597-3.218-6.577-7.182-6.577z"/></g></g></svg>