<svg xmlns="http://www.w3.org/2000/svg" width="64" height="64" viewBox="0 0 64 64"><g fill="none" fill-rule="evenodd" transform="translate(2 3)"><path stroke="#FFF" stroke-width="2" d="M4 58l8-8m44 8l-8-8"/><circle cx="30" cy="34" r="24" stroke="#FFF" stroke-linecap="square" stroke-width="2"/><path fill="#FFF" d="M22.756 3.563C20.336 1.371 17.158 0 13.636 0 6.105 0 0 6.105 0 13.636c0 2.137.535 4.132 1.411 5.932C5.872 11.572 13.588 5.645 22.756 3.563zm14.488 0C39.664 1.371 42.842 0 46.364 0 53.895 0 60 6.105 60 13.636c0 2.137-.535 4.132-1.411 5.932-4.461-7.996-12.177-13.923-21.345-16.005z"/><path stroke="#FFF" stroke-width="2" d="M32.828 31.172L39 25m-21-3l9.172 9.172"/><circle cx="30" cy="34" r="4" stroke="#FFF" stroke-linecap="square" stroke-width="2"/></g></svg>