<svg xmlns="http://www.w3.org/2000/svg" width="64" height="64" viewBox="0 0 64 64"><g fill="none" fill-rule="evenodd"><path stroke="#FFF" stroke-width="2" d="M32 59.692l.635-.545a162.434 162.434 0 0 0 3.377-3.012c3.495-3.204 6.99-6.66 10.25-10.234C55.473 35.798 61 26.753 61 20c0-8.899-6.81-16-15-16a16.48 16.48 0 0 0-13.2 6.6l-.8 1.067-.8-1.067A16.48 16.48 0 0 0 18 4C9.81 4 3 11.101 3 20c0 6.753 5.526 15.798 14.739 25.901 3.26 3.575 6.754 7.03 10.25 10.234A158.744 158.744 0 0 0 32 59.692z"/><path fill="#FFF" fill-rule="nonzero" d="M42.661 28.774h-6.435V22.34c0-.204-.136-.339-.339-.339h-6.774c-.203 0-.339.135-.339.339v6.435H22.34c-.204 0-.339.136-.339.339v6.774c0 .203.135.339.339.339h6.435v6.435c0 .204.136.339.339.339h6.774c.203 0 .339-.135.339-.339v-6.435h6.435c.204 0 .339-.136.339-.339v-6.774c0-.203-.135-.339-.339-.339z"/></g></svg>