<svg xmlns="http://www.w3.org/2000/svg" xmlns:xlink="http://www.w3.org/1999/xlink" viewBox="0 0 670 696"><defs><style>.cls-1,.cls-60{fill:none;}.cls-2{isolation:isolate;}.cls-3{clip-path:url(#clip-path);}.cls-10,.cls-11,.cls-12,.cls-13,.cls-14,.cls-15,.cls-16,.cls-17,.cls-18,.cls-19,.cls-20,.cls-21,.cls-22,.cls-23,.cls-24,.cls-25,.cls-26,.cls-27,.cls-28,.cls-29,.cls-30,.cls-31,.cls-32,.cls-33,.cls-34,.cls-35,.cls-36,.cls-37,.cls-38,.cls-39,.cls-4,.cls-40,.cls-41,.cls-42,.cls-43,.cls-44,.cls-45,.cls-46,.cls-47,.cls-48,.cls-49,.cls-5,.cls-50,.cls-7,.cls-9{opacity:0.6;mix-blend-mode:lighten;}.cls-4{fill:url(#linear-gradient);}.cls-6{fill:url(#linear-gradient-2);}.cls-7{fill:url(#linear-gradient-3);}.cls-8{fill:url(#linear-gradient-4);}.cls-9{fill:url(#linear-gradient-5);}.cls-10{fill:url(#New_Gradient_Swatch_1);}.cls-11{fill:url(#New_Gradient_Swatch_1-2);}.cls-12{fill:url(#New_Gradient_Swatch_1-3);}.cls-13{fill:url(#New_Gradient_Swatch_1-4);}.cls-14{fill:url(#New_Gradient_Swatch_1-5);}.cls-15{fill:url(#New_Gradient_Swatch_1-6);}.cls-16{fill:url(#New_Gradient_Swatch_1-7);}.cls-17{fill:url(#New_Gradient_Swatch_1-8);}.cls-18{fill:url(#New_Gradient_Swatch_1-9);}.cls-19{fill:url(#New_Gradient_Swatch_1-10);}.cls-20{fill:url(#New_Gradient_Swatch_1-11);}.cls-21{fill:url(#New_Gradient_Swatch_1-12);}.cls-22{fill:url(#New_Gradient_Swatch_1-13);}.cls-23{fill:url(#New_Gradient_Swatch_1-14);}.cls-24{fill:url(#New_Gradient_Swatch_1-15);}.cls-25{fill:url(#New_Gradient_Swatch_1-16);}.cls-26{fill:url(#New_Gradient_Swatch_1-17);}.cls-27{fill:url(#New_Gradient_Swatch_1-18);}.cls-28{fill:url(#New_Gradient_Swatch_1-19);}.cls-29{fill:url(#New_Gradient_Swatch_1-20);}.cls-30{fill:url(#New_Gradient_Swatch_1-21);}.cls-31{fill:url(#New_Gradient_Swatch_1-22);}.cls-32{fill:url(#New_Gradient_Swatch_1-23);}.cls-33{fill:url(#New_Gradient_Swatch_1-24);}.cls-34{fill:url(#New_Gradient_Swatch_1-28);}.cls-35{fill:url(#New_Gradient_Swatch_1-29);}.cls-36{fill:url(#New_Gradient_Swatch_1-30);}.cls-37{fill:url(#New_Gradient_Swatch_1-31);}.cls-38{fill:url(#New_Gradient_Swatch_1-32);}.cls-39{fill:url(#New_Gradient_Swatch_1-33);}.cls-40{fill:url(#New_Gradient_Swatch_1-34);}.cls-41{fill:url(#New_Gradient_Swatch_1-35);}.cls-42{fill:url(#New_Gradient_Swatch_1-36);}.cls-43{fill:url(#New_Gradient_Swatch_1-37);}.cls-44{fill:url(#New_Gradient_Swatch_1-38);}.cls-45{fill:url(#New_Gradient_Swatch_1-41);}.cls-46{fill:url(#New_Gradient_Swatch_1-43);}.cls-47{fill:url(#New_Gradient_Swatch_1-45);}.cls-48{fill:url(#linear-gradient-6);}.cls-49{fill:url(#linear-gradient-7);}.cls-50{fill:url(#linear-gradient-8);}.cls-51{fill:url(#linear-gradient-9);}.cls-52{fill:url(#linear-gradient-10);}.cls-53{fill:url(#linear-gradient-11);}.cls-54{clip-path:url(#clip-path-2);}.cls-55{fill:#fff;}.cls-56{fill:#e6e6e6;}.cls-57{fill:url(#New_Gradient_Swatch_5);}.cls-58{fill:url(#New_Gradient_Swatch_5-2);}.cls-59{fill:url(#New_Gradient_Swatch_5-3);}.cls-60{stroke:#b3b3b3;stroke-miterlimit:10;stroke-width:3px;}.cls-61{fill:url(#New_Gradient_Swatch_5-4);}.cls-62{fill:url(#linear-gradient-12);}.cls-63{fill:url(#New_Gradient_Swatch_1-46);}.cls-64{fill:url(#New_Gradient_Swatch_1-47);}.cls-65{fill:url(#New_Gradient_Swatch_1-48);}.cls-66{fill:url(#New_Gradient_Swatch_1-49);}.cls-67{fill:url(#linear-gradient-13);}.cls-68{fill:url(#New_Gradient_Swatch_5-5);}.cls-69{fill:url(#New_Gradient_Swatch_5-6);}.cls-70{fill:url(#New_Gradient_Swatch_5-7);}.cls-71{fill:url(#New_Gradient_Swatch_1-50);}</style><clipPath id="clip-path"><rect class="cls-1" y="-102" width="670" height="900"/></clipPath><linearGradient id="linear-gradient" x1="94.16" y1="559.62" x2="2.68" y2="-214.86" gradientTransform="matrix(0.99, 0.12, -0.12, 0.99, 287.98, 365.35)" gradientUnits="userSpaceOnUse"><stop offset="0" stop-color="#9172e9" stop-opacity="0"/><stop offset="0.65" stop-color="#9172e9" stop-opacity="0.65"/><stop offset="1" stop-color="#9172e9"/></linearGradient><linearGradient id="linear-gradient-2" x1="315.85" y1="654.3" x2="315.85" y2="112.93" gradientTransform="matrix(1, 0, 0, 1, 0, 0)" xlink:href="#linear-gradient"/><linearGradient id="linear-gradient-3" x1="17.04" y1="367.69" x2="-109.99" y2="-388.5" gradientTransform="translate(385 530.92) rotate(9.54)" gradientUnits="userSpaceOnUse"><stop offset="0" stop-color="#72bbe9" stop-opacity="0"/><stop offset="1" stop-color="#72bbe9"/></linearGradient><linearGradient id="linear-gradient-4" x1="340.89" y1="630.54" x2="340.89" y2="68.77" gradientTransform="matrix(1, 0, 0, 1, 0, 0)" xlink:href="#linear-gradient-3"/><linearGradient id="linear-gradient-5" x1="-6245.06" y1="991.61" x2="-6242.29" y2="1098.03" gradientTransform="translate(-5820.84 1459.2) rotate(-178.51)" gradientUnits="userSpaceOnUse"><stop offset="0" stop-color="#9172e9"/><stop offset="0.35" stop-color="#9172e9" stop-opacity="0.65"/><stop offset="1" stop-color="#9172e9" stop-opacity="0"/></linearGradient><linearGradient id="New_Gradient_Swatch_1" x1="58.53" y1="192.02" x2="58.53" y2="190.51" gradientUnits="userSpaceOnUse"><stop offset="0" stop-color="#c44ff9"/><stop offset="1" stop-color="#595ad3"/></linearGradient><linearGradient id="New_Gradient_Swatch_1-2" x1="119.72" y1="426.25" x2="119.72" y2="418.43" xlink:href="#New_Gradient_Swatch_1"/><linearGradient id="New_Gradient_Swatch_1-3" x1="123.51" y1="472.28" x2="123.51" y2="465.33" xlink:href="#New_Gradient_Swatch_1"/><linearGradient id="New_Gradient_Swatch_1-4" x1="183.79" y1="524.37" x2="183.79" y2="520.27" xlink:href="#New_Gradient_Swatch_1"/><linearGradient id="New_Gradient_Swatch_1-5" x1="261.34" y1="628.3" x2="261.34" y2="628.08" xlink:href="#New_Gradient_Swatch_1"/><linearGradient id="New_Gradient_Swatch_1-6" x1="449.79" y1="542.27" x2="449.79" y2="541.43" xlink:href="#New_Gradient_Swatch_1"/><linearGradient id="New_Gradient_Swatch_1-7" x1="528.42" y1="345.25" x2="528.42" y2="341.9" xlink:href="#New_Gradient_Swatch_1"/><linearGradient id="New_Gradient_Swatch_1-8" x1="530.4" y1="350.24" x2="530.4" y2="347.54" xlink:href="#New_Gradient_Swatch_1"/><linearGradient id="New_Gradient_Swatch_1-9" x1="542.6" y1="370.62" x2="542.6" y2="364.83" xlink:href="#New_Gradient_Swatch_1"/><linearGradient id="New_Gradient_Swatch_1-10" x1="564.43" y1="398.22" x2="564.43" y2="391.69" xlink:href="#New_Gradient_Swatch_1"/><linearGradient id="New_Gradient_Swatch_1-11" x1="181.85" y1="522.32" x2="185.72" y2="522.32" xlink:href="#New_Gradient_Swatch_1"/><linearGradient id="New_Gradient_Swatch_1-12" x1="431.58" y1="573.8" x2="432.28" y2="573.8" xlink:href="#New_Gradient_Swatch_1"/><linearGradient id="New_Gradient_Swatch_1-13" x1="449.57" y1="541.85" x2="450.01" y2="541.85" xlink:href="#New_Gradient_Swatch_1"/><linearGradient id="New_Gradient_Swatch_1-14" x1="477.12" y1="488.56" x2="479.23" y2="488.56" xlink:href="#New_Gradient_Swatch_1"/><linearGradient id="New_Gradient_Swatch_1-15" x1="487.71" y1="473.35" x2="489.34" y2="473.35" xlink:href="#New_Gradient_Swatch_1"/><linearGradient id="New_Gradient_Swatch_1-16" x1="503.31" y1="455.82" x2="506.54" y2="455.82" xlink:href="#New_Gradient_Swatch_1"/><linearGradient id="New_Gradient_Swatch_1-17" x1="537.53" y1="423" x2="542.99" y2="423" xlink:href="#New_Gradient_Swatch_1"/><linearGradient id="New_Gradient_Swatch_1-18" x1="383.8" y1="184.46" x2="390.91" y2="184.46" xlink:href="#New_Gradient_Swatch_1"/><linearGradient id="New_Gradient_Swatch_1-19" x1="394.4" y1="186.19" x2="401.19" y2="186.19" xlink:href="#New_Gradient_Swatch_1"/><linearGradient id="New_Gradient_Swatch_1-20" x1="428.85" y1="191.43" x2="433.94" y2="191.43" xlink:href="#New_Gradient_Swatch_1"/><linearGradient id="New_Gradient_Swatch_1-21" x1="433.94" y1="192.77" x2="453.1" y2="192.77" xlink:href="#New_Gradient_Swatch_1"/><linearGradient id="New_Gradient_Swatch_1-22" x1="458.76" y1="194.02" x2="470.38" y2="194.02" xlink:href="#New_Gradient_Swatch_1"/><linearGradient id="New_Gradient_Swatch_1-23" x1="470.38" y1="193.86" x2="476.29" y2="193.86" xlink:href="#New_Gradient_Swatch_1"/><linearGradient id="New_Gradient_Swatch_1-24" x1="552.71" y1="182.29" x2="554.2" y2="182.29" xlink:href="#New_Gradient_Swatch_1"/><linearGradient id="New_Gradient_Swatch_1-28" x1="261.34" y1="628.3" x2="261.34" y2="628.08" xlink:href="#New_Gradient_Swatch_1"/><linearGradient id="New_Gradient_Swatch_1-29" x1="387.35" y1="185.05" x2="387.35" y2="183.87" xlink:href="#New_Gradient_Swatch_1"/><linearGradient id="New_Gradient_Swatch_1-30" x1="397.79" y1="186.75" x2="397.79" y2="185.63" xlink:href="#New_Gradient_Swatch_1"/><linearGradient id="New_Gradient_Swatch_1-31" x1="431.4" y1="191.78" x2="431.4" y2="191.07" xlink:href="#New_Gradient_Swatch_1"/><linearGradient id="New_Gradient_Swatch_1-32" x1="431.93" y1="574.37" x2="431.93" y2="573.22" xlink:href="#New_Gradient_Swatch_1"/><linearGradient id="New_Gradient_Swatch_1-33" x1="443.52" y1="193.75" x2="443.52" y2="191.78" xlink:href="#New_Gradient_Swatch_1"/><linearGradient id="New_Gradient_Swatch_1-34" x1="464.57" y1="194.06" x2="464.57" y2="193.97" xlink:href="#New_Gradient_Swatch_1"/><linearGradient id="New_Gradient_Swatch_1-35" x1="473.33" y1="193.97" x2="473.33" y2="193.74" xlink:href="#New_Gradient_Swatch_1"/><linearGradient id="New_Gradient_Swatch_1-36" x1="478.18" y1="490.32" x2="478.18" y2="486.8" xlink:href="#New_Gradient_Swatch_1"/><linearGradient id="New_Gradient_Swatch_1-37" x1="488.52" y1="474.35" x2="488.52" y2="472.34" xlink:href="#New_Gradient_Swatch_1"/><linearGradient id="New_Gradient_Swatch_1-38" x1="504.93" y1="457.4" x2="504.93" y2="454.23" xlink:href="#New_Gradient_Swatch_1"/><linearGradient id="New_Gradient_Swatch_1-41" x1="540.26" y1="425.48" x2="540.26" y2="420.51" xlink:href="#New_Gradient_Swatch_1"/><linearGradient id="New_Gradient_Swatch_1-43" x1="553.46" y1="182.42" x2="553.46" y2="182.15" xlink:href="#New_Gradient_Swatch_1"/><linearGradient id="New_Gradient_Swatch_1-45" x1="431.76" y1="574.42" x2="432.1" y2="573.17" xlink:href="#New_Gradient_Swatch_1"/><linearGradient id="linear-gradient-6" x1="89.63" y1="482.58" x2="77.01" y2="515.48" gradientUnits="userSpaceOnUse"><stop offset="0" stop-color="#72bbe9" stop-opacity="0"/><stop offset="0.11" stop-color="#72bbe9" stop-opacity="0.02"/><stop offset="0.24" stop-color="#72bbe9" stop-opacity="0.09"/><stop offset="0.38" stop-color="#72bbe9" stop-opacity="0.19"/><stop offset="0.53" stop-color="#72bbe9" stop-opacity="0.34"/><stop offset="0.69" stop-color="#72bbe9" stop-opacity="0.53"/><stop offset="0.85" stop-color="#72bbe9" stop-opacity="0.76"/><stop offset="1" stop-color="#72bbe9"/></linearGradient><linearGradient id="linear-gradient-7" x1="322.63" y1="80.13" x2="322.63" y2="30.07" gradientUnits="userSpaceOnUse"><stop offset="0" stop-color="#9172e9" stop-opacity="0"/><stop offset="0.1" stop-color="#9172e9" stop-opacity="0.03"/><stop offset="0.23" stop-color="#9172e9" stop-opacity="0.1"/><stop offset="0.38" stop-color="#9172e9" stop-opacity="0.23"/><stop offset="0.55" stop-color="#9172e9" stop-opacity="0.4"/><stop offset="0.74" stop-color="#9172e9" stop-opacity="0.62"/><stop offset="0.93" stop-color="#9172e9" stop-opacity="0.89"/><stop offset="1" stop-color="#9172e9"/></linearGradient><linearGradient id="linear-gradient-8" x1="413.43" y1="646.57" x2="432.35" y2="683.71" gradientUnits="userSpaceOnUse"><stop offset="0" stop-color="#72bbe9" stop-opacity="0"/><stop offset="0.1" stop-color="#72bbe9" stop-opacity="0.02"/><stop offset="0.24" stop-color="#72bbe9" stop-opacity="0.09"/><stop offset="0.38" stop-color="#72bbe9" stop-opacity="0.2"/><stop offset="0.53" stop-color="#72bbe9" stop-opacity="0.35"/><stop offset="0.7" stop-color="#72bbe9" stop-opacity="0.55"/><stop offset="0.86" stop-color="#72bbe9" stop-opacity="0.78"/><stop offset="1" stop-color="#72bbe9"/></linearGradient><linearGradient id="linear-gradient-9" x1="89.63" y1="482.59" x2="77.01" y2="515.48" xlink:href="#linear-gradient-6"/><linearGradient id="linear-gradient-10" x1="322.63" y1="80.13" x2="322.63" y2="30.07" xlink:href="#linear-gradient-7"/><linearGradient id="linear-gradient-11" x1="413.43" y1="646.57" x2="432.35" y2="683.71" xlink:href="#linear-gradient-8"/><clipPath id="clip-path-2"><path class="cls-1" d="M561.66,391.69l-1.88-2.26-1.89-2.29c-3.81-4.64-7.69-9.5-11.65-14.63-.48-.62-1-1.25-1.45-1.89-1.45-1.89-2.92-3.83-4.38-5.79s-2.79-3.76-4.2-5.69q-1.5-2.06-2.76-4.19c-.42-.71-.82-1.43-1.2-2.15h0q-.48-.92-.93-1.83l-.33-.72c-.42-.89-.81-1.79-1.16-2.7-.09-.22-.18-.43-.26-.64-.21-.55-.41-1.09-.61-1.65-.39-1.1-.74-2.22-1.06-3.35-.16-.57-.31-1.14-.46-1.71q-.45-1.8-.81-3.63c-.16-.82-.3-1.64-.43-2.47-7.07-45.25,28.08-106.7,28.08-148.79,0-.53,0-1.06,0-1.58s0-1,0-1.56l-1.49.26,1.49-.27c-.61-13.71-5.35-25.16-17.09-33-72.25-48.49-170-5.07-236.17-10.83-69.08-6-111.16-96-186.65-55-42.32,23-56.23,62.49-55.77,107.21,0,.5,0,1,0,1.51a4.56,4.56,0,0,0,0,.52c0,1.21.05,2.43.1,3.65a.48.48,0,0,0,0,.12c0,.95.07,1.89.13,2.85,0,.72.06,1.44.11,2.16s.08,1.31.13,2,.07,1.24.13,1.86.09,1.25.14,1.87.12,1.43.19,2.15.15,1.68.24,2.52c0,.28,0,.55.08.83.09,1,.2,1.95.31,2.93,0,.46.1.92.16,1.38.13,1.07.26,2.14.4,3.21,0,.11,0,.23,0,.35.13,1,.26,2,.4,2.93.1.76.21,1.53.33,2.29.16,1.09.32,2.18.5,3.28s.32,2.05.5,3.08l.15.93.45,2.59.33,1.81q.26,1.44.54,2.88c0,.26.09.51.15.77.21,1.13.43,2.26.67,3.39,0,.21.08.43.13.64.16.86.34,1.72.53,2.58s.41,2,.63,2.94c.35,1.63.71,3.26,1.08,4.88.25,1.09.51,2.19.77,3.28.31,1.32.62,2.63.95,3.95a2.86,2.86,0,0,0,.07.28c.32,1.31.64,2.61,1,3.92s.68,2.67,1,4q2,7.47,4.12,14.89c.39,1.36.79,2.71,1.19,4.06q.48,1.65,1,3.3c.22.75.45,1.5.68,2.25.38,1.26.77,2.52,1.16,3.77q1,3.41,2.13,6.76c.42,1.33.85,2.65,1.28,4,.33,1,.66,2.06,1,3.08,5.7,17.39,11.71,34.09,17.22,49.47.48,1.34,1,2.68,1.43,4,1.62,4.54,3.2,9,4.7,13.24q1.13,3.21,2.19,6.31t2.07,6.08c.62,1.84,1.21,3.65,1.79,5.42l.35,1.1q.36,1.1.69,2.16c.32,1,.63,2,.93,3q1.09,3.56,2,6.87.39,1.38.75,2.73t.69,2.64q.33,1.29.63,2.55c.2.83.39,1.66.57,2.46q.57,2.63,1,5.36c.21,1.24.4,2.49.58,3.75.14.88.26,1.76.36,2.65s.25,2,.36,3.07.22,2.07.32,3.11v.05c.1,1,.18,2,.26,3,0,.08,0,.16,0,.23.07.91.14,1.83.2,2.75l.15,2.37.12,2.16c0,.78.08,1.57.11,2.36s.08,1.82.11,2.74c.15,3.55.24,7.15.32,10.8,0,2.3.09,4.61.13,6.95h0l9.55,7.27,2.62,2c13.39,10.24,25.91,20,36.46,29.52l1.41,1.27c1.86,1.7,3.66,3.39,5.38,5.07l1.28,1.26c.54.53,1.06,1.06,1.58,1.59.72.72,1.42,1.45,2.1,2.17s1.19,1.27,1.77,1.93,1.16,1.3,1.73,2l0,0c.55.63,1.08,1.27,1.61,1.92.23.26.44.53.66.8.76.93,1.51,1.89,2.26,2.86s1.55,2,2.32,3.07c.56.76,1.12,1.53,1.67,2.31s1.12,1.56,1.67,2.36,1.11,1.6,1.65,2.41,1,1.49,1.52,2.25l.13.2c.55.82,1.1,1.66,1.64,2.5.14.2.27.4.4.61q1.44,2.22,2.88,4.5c5.55,8.78,11.1,18.13,16.93,27.47q1.58,2.5,3.16,5l1.76,2.74c.59.91,1.19,1.82,1.79,2.73,1.19,1.82,2.41,3.63,3.64,5.42.61.9,1.23,1.79,1.86,2.68s1.16,1.65,1.75,2.47l.26.37c.59.82,1.19,1.64,1.79,2.45,3.54,4.8,7.25,9.45,11.17,13.86l1.07,1.2q4.63,5.13,9.68,9.75h0c.4-.06.79-.13,1.19-.21,1.79-.32,3.57-.68,5.35-1.06l2.48-.56q5.09-1.17,10.09-2.62c1.67-.47,3.34-1,5-1.5s3.31-1.05,4.95-1.61l2.46-.84c.82-.28,1.63-.57,2.45-.87l4.39-1.61.47-.18c1.61-.61,3.22-1.24,4.81-1.87s3.19-1.29,4.77-1.94l.15-.06c1.35-.56,2.69-1.13,4-1.7l2-.86q1.62-.69,3.21-1.41c1.56-.69,3.12-1.39,4.65-2.09l3.87-1.78,1.93-.9,3.78-1.78c2-1,4-1.89,5.94-2.83l5.15-2.48,5.45-2.63,2.06-1c1-.5,2-1,3-1.46h0c.34-.17.67-.33,1-.48l2-1,2.12-1c1.68-.78,3.33-1.55,5-2.29l.72-.32,1.89-.84c1.25-.56,2.49-1.1,3.71-1.62l.07,0,1.76-.74c.6-.26,1.2-.5,1.8-.74s1.19-.48,1.77-.71q2.64-1.05,5.18-1.94c1.29-.45,2.61-.88,4-1.27l1.05-.3.82-.23,1.48-.38,1.56-.38,1.53-.34,1.58-.33,1.59-.31,1.62-.29q4.08-.71,8.4-1.18l2.67-.28c.83-.08,1.66-.16,2.5-.22h.09l1.79-.14c1.8-.14,3.62-.26,5.47-.35l1.3-.06,1-.05c1.11,0,2.22-.09,3.34-.12l1.9-.06,3.85-.08,2.71,0c.24-.38.47-.76.7-1.15q1.77-2.93,3.47-5.88c.37-.63.74-1.26,1.1-1.9,4-7,7.85-14,11.53-20.91l1.19-2.26c.15-.28.3-.56.44-.84q2.16-4.09,4.25-8.13l2.85-5.51c2.86-5.54,5.63-10.94,8.33-16.1l1.6-3.06c1.41-2.67,2.8-5.28,4.17-7.8.54-1,1.09-2,1.63-3l.81-1.46.81-1.44c.66-1.16,1.31-2.31,2-3.42l.71-1.21c.7-1.21,1.4-2.38,2.11-3.52.16-.25.31-.5.46-.75.37-.6.73-1.19,1.11-1.77l.78-1.22c.51-.8,1-1.59,1.54-2.35l.77-1.13c.77-1.12,1.54-2.2,2.3-3.23.28-.39.57-.76.84-1.13l.68-.87.75-1c.28-.35.58-.71.88-1.06s.6-.73.91-1.09l.36-.42c.5-.58,1-1.17,1.55-1.77.8-.9,1.64-1.82,2.5-2.76.28-.31.57-.62.88-.94.89-.95,1.81-1.91,2.76-2.9l1-1q2-2,4.05-4.07c1.05-1,2.12-2.1,3.23-3.17l2.25-2.17,1.73-1.65c1.16-1.11,2.35-2.24,3.56-3.37l1.84-1.72q3.74-3.48,7.72-7.16l2.61-2.39,7.71-7,1.77-1.61c.6-.53,1.2-1.08,1.8-1.64l5.46-5q1.85-1.67,3.71-3.37l3.74-3.42,5.69-5.22L560,405q3.6-3.33,7.24-6.74h0Q564.45,395,561.66,391.69ZM383.8,183.87l7.11,1.18Zm10.6,1.76,6.79,1.12Zm47.46,7.16q-3.78-.43-7.92-1c-1.66-.22-3.35-.46-5.09-.71l5.09.71c2.76.37,5.4.71,7.92,1q5.64.66,11.24,1Q447.51,193.45,441.86,192.79ZM470.38,194c-3.85.11-7.72.12-11.62,0,3.89.1,7.77.09,11.62,0q3-.08,5.91-.23Q473.35,193.9,470.38,194Z"/></clipPath><linearGradient id="New_Gradient_Swatch_5" x1="211.57" y1="168.93" x2="324.52" y2="281.89" gradientUnits="userSpaceOnUse"><stop offset="0" stop-color="#72bbe9"/><stop offset="1" stop-color="#9172e9"/></linearGradient><linearGradient id="New_Gradient_Swatch_5-2" x1="211.57" y1="223.05" x2="324.52" y2="336" xlink:href="#New_Gradient_Swatch_5"/><linearGradient id="New_Gradient_Swatch_5-3" x1="211.57" y1="277.16" x2="324.52" y2="390.11" xlink:href="#New_Gradient_Swatch_5"/><linearGradient id="New_Gradient_Swatch_5-4" x1="243.99" y1="492.34" x2="292.11" y2="540.46" xlink:href="#New_Gradient_Swatch_5"/><linearGradient id="linear-gradient-12" x1="82.09" y1="450.08" x2="132.77" y2="450.08" gradientUnits="userSpaceOnUse"><stop offset="0" stop-color="#e6e6e6"/><stop offset="1" stop-color="#9a8de3"/></linearGradient><linearGradient id="New_Gradient_Swatch_1-46" x1="-58.97" y1="288.96" x2="23.79" y2="371.73" xlink:href="#New_Gradient_Swatch_1"/><linearGradient id="New_Gradient_Swatch_1-47" x1="-58.97" y1="328.98" x2="23.79" y2="411.75" xlink:href="#New_Gradient_Swatch_1"/><linearGradient id="New_Gradient_Swatch_1-48" x1="-58.97" y1="369" x2="23.79" y2="451.77" xlink:href="#New_Gradient_Swatch_1"/><linearGradient id="New_Gradient_Swatch_1-49" x1="-35.38" y1="527.75" x2="0.2" y2="563.34" xlink:href="#New_Gradient_Swatch_1"/><linearGradient id="linear-gradient-13" x1="882.28" y1="450.08" x2="932.95" y2="450.08" gradientTransform="matrix(-1, 0, 0, 1, 1336.27, 0)" xlink:href="#linear-gradient-12"/><linearGradient id="New_Gradient_Swatch_5-5" x1="741.21" y1="288.96" x2="823.98" y2="371.73" gradientTransform="matrix(1, 0, 0, -1, -228.92, 660.69)" xlink:href="#New_Gradient_Swatch_5"/><linearGradient id="New_Gradient_Swatch_5-6" x1="741.21" y1="328.98" x2="823.98" y2="411.75" gradientTransform="matrix(1, 0, 0, -1, -228.92, 740.73)" xlink:href="#New_Gradient_Swatch_5"/><linearGradient id="New_Gradient_Swatch_5-7" x1="741.21" y1="369" x2="823.98" y2="451.77" gradientTransform="matrix(1, 0, 0, -1, -228.92, 820.76)" xlink:href="#New_Gradient_Swatch_5"/><linearGradient id="New_Gradient_Swatch_1-50" x1="764.8" y1="527.75" x2="800.39" y2="563.34" gradientTransform="matrix(-1, 0, 0, 1, 1336.27, 0)" xlink:href="#New_Gradient_Swatch_1"/></defs><title>Illus-5</title><g class="cls-2"><g id="Design"><g class="cls-3"><path class="cls-4" d="M14.06,306.36c12-192,234.8-231.84,340.19-160C437.9,203.33,546.43,131,608,228.1c45.69,72-78.86,195.08-119.57,245.3C455,514.73,416.58,652.46,328.58,654.28,245.13,656,222.42,563.12,183.94,522.44,133.49,469.1,6.57,426.17,14.06,306.36Z"/><g class="cls-5"><path class="cls-6" d="M234.48,113.93c45.43,0,87.76,11.8,119.21,33.23C390.13,172,431.23,172.45,471,172.89c52.22.59,101.55,1.14,136.2,55.74,9,14.24,11.82,31.59,8.26,51.55-3.08,17.25-11,37-23.53,58.71-23,39.9-57.57,79.68-82.79,108.72-8.43,9.71-15.7,18.09-21.43,25.16-9.2,11.34-18.6,29.59-29.49,50.72-14.5,28.13-30.93,60-51.9,85.39-24.21,29.3-49.64,43.82-77.74,44.4l-2.25,0c-57.43,0-85.63-46.21-110.5-87-10.3-16.88-20-32.82-31.14-44.57-13.83-14.62-33.46-28.52-54.24-43.24-27.19-19.25-58-41.08-80.6-68.4C24,378.89,12.64,345,15.05,306.42c3.81-61,29.67-111.48,74.76-146a219.71,219.71,0,0,1,68.73-35,255.5,255.5,0,0,1,75.94-11.41h0m0-1c-101.84,0-212.08,59.94-220.42,193.43C6.57,426.17,133.49,469.1,183.94,522.44,222.07,562.75,244.7,654.3,326.31,654.3l2.27,0c88-1.82,126.38-139.55,159.88-180.88C529.17,423.18,653.72,300.09,608,228.1,546.43,131,437.9,203.33,354.25,146.33c-32.12-21.88-75.14-33.4-119.77-33.4Z"/></g><path class="cls-7" d="M114.29,83.3c75.49-41,139.26,17.3,208.34,23.3,66.2,5.76,141.94-34,214.48,42.51,51.51,54.33-42.6,146.39-.91,210,28.89,44.07,100.56,98.26,84.86,170.19-19.6,89.82-180.26,30.55-239.66,51.46C332.51,598,251.55,660.15,176.24,613.53,104.8,569.3,131.79,477,119.49,420.89,103.35,347.37-6.07,148.76,114.29,83.3Z"/><g class="cls-5"><path class="cls-8" d="M170.44,69.77c28,0,55.37,9.76,81.82,19.2,22.82,8.14,46.42,16.55,70.28,18.63,4.65.4,9.44.6,14.66.6,13.89,0,27.83-1.39,42.59-2.87s30.18-3,45.53-3c30.74,0,71.16,5.4,111.06,47.48,26,27.45,14.39,64.4,2.06,103.52-11.62,36.87-23.63,75-3.07,106.36,7.26,11.09,17.22,22.81,27.76,35.22,15.45,18.19,33,38.8,44.72,61.08,13.43,25.43,17.43,49.35,12.24,73.13-4.26,19.49-15.34,32.93-33.9,41.09-15.17,6.67-35,9.78-62.25,9.78-18,0-36.8-1.34-55-2.63-17.39-1.24-33.81-2.4-48.75-2.4-17.18,0-29.6,1.55-39.09,4.89-10.68,3.76-23.05,9.74-36.15,16.06-31,15-69.64,33.64-108.71,33.64a109.89,109.89,0,0,1-59.45-16.86c-50.49-31.26-51.36-87.24-52.14-136.62-.31-20.17-.61-39.21-4.16-55.38-3.4-15.53-10.9-36.46-19.58-60.7C84.68,314.75,64.53,258.47,60.3,207.14c-2.28-27.75.41-51.68,8-71.12,8.76-22.4,24.39-39.84,46.45-51.84a113.83,113.83,0,0,1,55.66-14.41h0m0-1A114.94,114.94,0,0,0,114.29,83.3c-120.36,65.46-10.94,264.07,5.2,337.59C131.79,477,104.8,569.3,176.24,613.53a111.55,111.55,0,0,0,60,17c55.75,0,109.17-37.07,145.19-49.75C391.7,577.16,405,576,420.16,576c30.77,0,68.91,5,103.78,5,46.86,0,87.84-9.09,97.12-51.65,15.7-71.93-56-126.12-84.85-170.19-41.7-63.64,52.41-155.7.9-210-37-39-74.82-47.79-111.79-47.79-30.26,0-59.94,5.88-88.12,5.88-4.9,0-9.76-.18-14.57-.6-51.34-4.46-99.74-37.83-152.2-37.83Z"/></g><path class="cls-9" d="M333.8,539.3c20.9-35.52,82.06,2.14,118,3.07s86.7-36.16,109.54,4.73c17.53,31.4-26.6,85.54-109.49,83.38C376,628.5,316.15,569.3,333.8,539.3Z"/><path class="cls-10" d="M58.54,192c0-.5,0-1,0-1.5a0,0,0,0,0,0,0C58.52,191,58.52,191.51,58.54,192Z"/><path class="cls-11" d="M120.53,426.25c-.32-1.82-.66-3.61-1-5.36l-.56-2.46c.2.83.39,1.66.57,2.46Q120.06,423.52,120.53,426.25Z"/><path class="cls-12" d="M123.57,472.28h0c0-2.33-.07-4.65-.12-6.95C123.49,467.63,123.53,469.94,123.57,472.28Z"/><path class="cls-13" d="M185.72,524.37c-.59-.66-1.18-1.3-1.78-1.93s-1.38-1.44-2.09-2.17c.72.72,1.42,1.45,2.1,2.17S185.14,523.71,185.72,524.37Z"/><path class="cls-14" d="M261.94,628.08l-1.18.22h0C261.15,628.23,261.54,628.16,261.94,628.08Z"/><path class="cls-15" d="M450,541.43l-.43.84h0C449.72,542,449.87,541.71,450,541.43Z"/><path class="cls-16" d="M529,345.25c-.39-1.1-.74-2.22-1.06-3.35C528.21,343,528.57,344.15,529,345.25Z"/><path class="cls-17" d="M531,350.24c-.42-.89-.81-1.79-1.16-2.7C530.18,348.45,530.56,349.35,531,350.24Z"/><path class="cls-18" d="M544.79,370.62c-1.45-1.89-2.92-3.83-4.38-5.79C541.88,366.79,543.34,368.73,544.79,370.62Z"/><path class="cls-19" d="M567.2,398.22q-2.75-3.18-5.54-6.53Q564.46,395,567.2,398.22Z"/><path class="cls-20" d="M185.72,524.37c-.59-.66-1.18-1.3-1.78-1.93s-1.38-1.44-2.09-2.17c.72.72,1.42,1.45,2.1,2.17S185.14,523.71,185.72,524.37Z"/><path class="cls-21" d="M432.28,573.22l-.69,1.15h0C431.82,574,432.05,573.61,432.28,573.22Z"/><path class="cls-22" d="M450,541.43l-.43.84h0C449.72,542,449.87,541.71,450,541.43Z"/><path class="cls-23" d="M479.23,486.8c-.7,1.14-1.4,2.31-2.11,3.52C477.82,489.11,478.52,487.94,479.23,486.8Z"/><path class="cls-24" d="M489.34,472.34c-.3.35-.58.71-.87,1.06l-.76,1,.75-1C488.74,473.05,489,472.69,489.34,472.34Z"/><path class="cls-25" d="M506.54,454.23l-3.23,3.17C504.36,456.35,505.43,455.3,506.54,454.23Z"/><path class="cls-26" d="M543,420.51c-1.84,1.69-3.66,3.34-5.46,5Z"/><path class="cls-27" d="M383.8,183.87l7.11,1.18Z"/><path class="cls-28" d="M394.4,185.63l6.79,1.12Z"/><path class="cls-29" d="M428.85,191.07l5.09.71C432.28,191.56,430.59,191.32,428.85,191.07Z"/><path class="cls-30" d="M441.86,192.78q5.64.66,11.24,1-5.6-.3-11.24-1-3.78-.43-7.92-1C436.7,192.15,439.34,192.49,441.86,192.78Z"/><path class="cls-31" d="M470.38,194c-3.85.11-7.72.12-11.62,0C462.65,194.08,466.53,194.07,470.38,194Z"/><path class="cls-32" d="M470.38,194q3-.08,5.91-.23Q473.35,193.9,470.38,194Z"/><path class="cls-33" d="M554.2,182.15h0l-1.49.26Z"/><path class="cls-10" d="M58.54,192c0-.5,0-1,0-1.5a0,0,0,0,0,0,0C58.52,191,58.52,191.51,58.54,192Z"/><path class="cls-11" d="M120.53,426.25c-.32-1.82-.66-3.61-1-5.36l-.56-2.46c.2.83.39,1.66.57,2.46Q120.06,423.52,120.53,426.25Z"/><path class="cls-12" d="M123.57,472.28h0c0-2.33-.07-4.65-.12-6.95C123.49,467.63,123.53,469.94,123.57,472.28Z"/><path class="cls-34" d="M261.94,628.08l-1.18.22h0C261.15,628.23,261.54,628.16,261.94,628.08Z"/><path class="cls-35" d="M390.91,185.05l-7.11-1.18Z"/><path class="cls-36" d="M401.19,186.75l-6.79-1.12Z"/><path class="cls-37" d="M433.94,191.78c-1.66-.22-3.35-.46-5.09-.71Z"/><path class="cls-38" d="M432.28,573.22l-.69,1.15h0C431.82,574,432.05,573.61,432.28,573.22Z"/><path class="cls-39" d="M453.1,193.75q-5.6-.3-11.24-1-3.78-.43-7.92-1c2.76.37,5.4.71,7.92,1Q447.5,193.44,453.1,193.75Z"/><path class="cls-40" d="M470.38,194c-3.85.11-7.72.12-11.62,0C462.65,194.08,466.53,194.07,470.38,194Z"/><path class="cls-41" d="M476.29,193.74q-2.94.16-5.91.23Q473.34,193.9,476.29,193.74Z"/><path class="cls-42" d="M479.23,486.8c-.7,1.14-1.4,2.31-2.11,3.52C477.82,489.11,478.52,487.94,479.23,486.8Z"/><path class="cls-43" d="M489.34,472.34c-.3.35-.58.71-.87,1.06l-.76,1,.75-1C488.74,473.05,489,472.69,489.34,472.34Z"/><path class="cls-44" d="M506.54,454.23l-3.23,3.17C504.36,456.35,505.43,455.3,506.54,454.23Z"/><path class="cls-16" d="M529,345.25c-.39-1.1-.74-2.22-1.06-3.35C528.21,343,528.57,344.15,529,345.25Z"/><path class="cls-17" d="M531,350.24c-.42-.89-.81-1.79-1.16-2.7C530.18,348.45,530.56,349.35,531,350.24Z"/><path class="cls-45" d="M543,420.51c-1.84,1.69-3.66,3.34-5.46,5Z"/><path class="cls-18" d="M544.79,370.62c-1.45-1.89-2.92-3.83-4.38-5.79C541.88,366.79,543.34,368.73,544.79,370.62Z"/><path class="cls-46" d="M554.2,182.15h0l-1.49.26Z"/><path class="cls-19" d="M567.2,398.22q-2.75-3.18-5.54-6.53Q564.46,395,567.2,398.22Z"/><path class="cls-47" d="M432.28,573.22l-.69,1.15h0C431.82,574,432.05,573.61,432.28,573.22Z"/><circle class="cls-48" cx="83.32" cy="499.03" r="17.61"/><circle class="cls-49" cx="322.63" cy="55.1" r="25.03"/><circle class="cls-50" cx="422.89" cy="665.14" r="20.84"/><g class="cls-5"><path class="cls-51" d="M83.32,482.42A16.61,16.61,0,1,1,66.71,499a16.63,16.63,0,0,1,16.61-16.61m0-1A17.61,17.61,0,1,0,100.93,499a17.6,17.6,0,0,0-17.61-17.61Z"/></g><g class="cls-5"><path class="cls-52" d="M322.63,31.07a24,24,0,1,1-24,24,24.06,24.06,0,0,1,24-24m0-1a25,25,0,1,0,25,25,25,25,0,0,0-25-25Z"/></g><g class="cls-5"><path class="cls-53" d="M422.89,645.3a19.84,19.84,0,1,1-19.84,19.84,19.86,19.86,0,0,1,19.84-19.84m0-1a20.84,20.84,0,1,0,20.84,20.84,20.84,20.84,0,0,0-20.84-20.84Z"/></g><g class="cls-54"><rect class="cls-55" x="132.77" y="146.33" width="270.55" height="481.96"/><rect class="cls-56" x="152.28" y="168.98" width="231.54" height="441.15" rx="10" ry="10"/><rect class="cls-57" x="173.04" y="204.54" width="190.02" height="41.75" rx="5" ry="5"/><rect class="cls-58" x="173.04" y="258.65" width="190.02" height="41.75" rx="5" ry="5"/><rect class="cls-59" x="173.04" y="312.76" width="190.02" height="41.75" rx="5" ry="5"/><circle class="cls-60" cx="268.05" cy="516.4" r="48.13"/><circle class="cls-61" cx="268.05" cy="516.4" r="34.03"/><line class="cls-60" x1="152.28" y1="401.61" x2="383.82" y2="401.61"/><polygon class="cls-62" points="82.09 271.87 132.76 322.54 132.76 628.29 82.09 628.29 82.09 271.87"/><rect class="cls-55" x="-117.63" y="271.87" width="200.08" height="356.43"/><rect class="cls-56" x="-103.21" y="288.62" width="171.23" height="326.24" rx="10" ry="10"/><rect class="cls-63" x="-87.85" y="314.91" width="140.52" height="30.87" rx="5" ry="5"/><rect class="cls-64" x="-87.85" y="354.93" width="140.52" height="30.87" rx="5" ry="5"/><rect class="cls-65" x="-87.85" y="394.94" width="140.52" height="30.87" rx="5" ry="5"/><circle class="cls-60" cx="-17.59" cy="545.54" r="35.59"/><circle class="cls-66" cx="-17.59" cy="545.54" r="25.16"/><line class="cls-60" x1="-103.21" y1="460.65" x2="68.03" y2="460.65"/><polygon class="cls-67" points="453.99 271.87 403.32 322.54 403.32 628.29 453.99 628.29 453.99 271.87"/><rect class="cls-55" x="453.64" y="271.87" width="200.08" height="356.43" transform="translate(1107.35 900.16) rotate(-180)"/><rect class="cls-56" x="468.06" y="288.62" width="171.23" height="326.24" rx="10" ry="10" transform="translate(1107.35 903.48) rotate(-180)"/><rect class="cls-68" x="483.42" y="314.91" width="140.52" height="30.87" rx="5" ry="5" transform="translate(1107.35 660.69) rotate(-180)"/><rect class="cls-69" x="483.42" y="354.93" width="140.52" height="30.87" rx="5" ry="5" transform="translate(1107.35 740.73) rotate(-180)"/><rect class="cls-70" x="483.42" y="394.94" width="140.52" height="30.87" rx="5" ry="5" transform="translate(1107.35 820.76) rotate(-180)"/><circle class="cls-60" cx="553.68" cy="545.54" r="35.59"/><circle class="cls-71" cx="553.68" cy="545.54" r="25.16"/><line class="cls-60" x1="639.29" y1="460.65" x2="468.06" y2="460.65"/></g></g></g></g></svg>