<svg xmlns="http://www.w3.org/2000/svg" xmlns:xlink="http://www.w3.org/1999/xlink" width="785" height="335" viewBox="0 0 785 335">
    <defs>
        <linearGradient id="a" x1="1.483%" x2="91.076%" y1="27.797%" y2="92.258%">
            <stop offset="0%" stop-color="#4776E6"/>
            <stop offset="100%" stop-color="#8E54E9"/>
        </linearGradient>
        <linearGradient id="c" x1="0%" x2="98.1%" y1="0%" y2="90.727%">
            <stop offset="0%" stop-color="#162E8F"/>
            <stop offset="100%" stop-color="#D406A2"/>
        </linearGradient>
        <path id="b" d="M625.547 318.054c-82.903 0-159.282-62.057-233.047-126.463-73.765 64.406-150.144 126.463-233.047 126.463C71.533 318.054 0 246.712 0 159.027 0 71.342 71.533 0 159.453 0 242.356 0 318.735 62.057 392.5 126.463 466.265 62.057 542.644 0 625.547 0 713.467 0 785 71.342 785 159.027c0 87.685-71.533 159.027-159.453 159.027zM429.689 159.027c65.364 56.834 132.212 110.096 195.858 110.096 60.874 0 110.39-49.384 110.39-110.096 0-60.7-49.516-110.096-110.39-110.096-63.634 0-130.494 53.262-195.858 110.096zM159.453 48.931c-60.874 0-110.39 49.397-110.39 110.096 0 60.712 49.516 110.096 110.39 110.096 63.634 0 130.494-53.262 195.858-110.096-65.364-56.834-132.224-110.096-195.858-110.096z"/>
        <linearGradient id="d" x1="21.991%" x2="55.688%" y1="75.592%" y2="32.005%">
            <stop offset="0%" stop-color="#0B0C19" stop-opacity=".472"/>
            <stop offset="100%" stop-color="#0B0D1A" stop-opacity="0"/>
        </linearGradient>
        <filter id="e" width="100%" height="100%" x="0%" y="0%" filterUnits="objectBoundingBox">
            <feGaussianBlur in="SourceGraphic"/>
        </filter>
        <filter id="f" width="100%" height="100%" x="0%" y="0%" filterUnits="objectBoundingBox">
            <feGaussianBlur in="SourceGraphic"/>
        </filter>
    </defs>
    <g fill="none" fill-rule="evenodd">
        <path stroke="url(#a)" stroke-width="2" d="M625.547 334C712.915 334 784 263.105 784 175.973c0-87.133-71.085-158.027-158.453-158.027-38.454 0-77.331 13.284-119.43 38.933-33.187 20.22-64.312 44.808-112.96 87.283l-.657.574-.658-.574C343.195 101.687 312.07 77.1 278.883 56.88c-42.099-25.65-80.976-38.933-119.43-38.933C72.085 17.946 1 88.84 1 175.973 1 263.105 72.085 334 159.453 334c38.454 0 77.331-13.284 119.43-38.933 33.187-20.22 64.312-44.808 112.96-87.284l.657-.574.658.574c48.647 42.476 79.772 67.064 112.959 87.284C548.216 320.716 587.093 334 625.547 334zM429.033 176.727l-.868-.754.868-.755c41.662-36.225 70.1-58.668 98.706-76.455 35.872-22.305 67.845-33.886 97.808-33.886 61.422 0 111.39 49.84 111.39 111.096 0 61.264-49.964 111.096-111.39 111.096-29.968 0-61.942-11.58-97.813-33.886-28.603-17.786-57.028-40.22-98.7-76.456zm-269.58-111.85c29.963 0 61.936 11.58 97.808 33.886 28.607 17.787 57.044 40.23 98.706 76.455l.868.755-.868.754c-41.662 36.226-70.1 58.668-98.706 76.456-35.872 22.305-67.845 33.886-97.808 33.886-61.426 0-111.39-49.832-111.39-111.096 0-61.257 49.968-111.096 111.39-111.096z"/>
        <use fill="url(#c)" fill-rule="nonzero" opacity=".8" xlink:href="#b"/>
        <path fill="url(#d)" d="M387.928 123.08l43.755 38.93 112.05-27.513 57.112-117.551-197.39 38.073z" filter="url(#e)"/>
        <path fill="url(#d)" d="M180.25 259.948l43.755 38.93 112.05-27.514 57.111-117.55-197.39 38.073z" filter="url(#f)" transform="rotate(180 286.708 226.345)"/>
    </g>
</svg>
