<svg xmlns="http://www.w3.org/2000/svg" width="119" height="150" viewBox="0 0 119 150">
    <defs>
        <linearGradient id="a" x1="-42.666%" y1="-30.993%" y2="100%">
            <stop offset="0%" stop-color="#0B298E"/>
            <stop offset="100%" stop-color="#9700C9"/>
        </linearGradient>
    </defs>
    <path fill="none" fill-rule="evenodd" stroke="url(#a)" stroke-width="2" d="M13.115 149c3.462 0 6.36-1.19 8.751-3.588 2.394-2.402 3.578-5.24 3.578-8.57 0-3.475-1.186-6.384-3.578-8.784-2.391-2.4-5.289-3.589-8.751-3.589-3.316 0-6.143 1.188-8.537 3.589-2.392 2.4-3.578 5.309-3.578 8.785 0 3.329 1.184 6.167 3.578 8.569 2.394 2.4 5.22 3.588 8.537 3.588zM90.505 1v148H118V1H90.504zM73.172 109.527C53.425 61.344 38.645 25.169 28.833 1H1.468c25.383 64.39 44.557 113.126 57.522 146.207 6.226-16.59 10.953-29.15 14.182-37.68z"/>
</svg>
