<svg xmlns="http://www.w3.org/2000/svg" width="91" height="151" viewBox="0 0 91 151">
    <defs>
        <linearGradient id="a" x1="0%" y1="0%" y2="100%">
            <stop offset="0%" stop-color="#0B298E"/>
            <stop offset="100%" stop-color="#9700C9"/>
        </linearGradient>
    </defs>
    <path fill="none" fill-rule="evenodd" stroke="url(#a)" stroke-width="2" d="M31 1v148.146h28.03V1H31zm60.059.015v58.029c7.603-.226 14.098-3.047 19.533-8.482 5.671-5.671 8.496-12.497 8.496-20.533 0-8.035-2.825-14.861-8.496-20.533-5.435-5.435-11.93-8.255-19.533-8.481zm0 60.058v88.059c7.603-.226 14.098-3.047 19.533-8.482 5.671-5.671 8.496-12.497 8.496-20.533v-30.03c0-8.035-2.825-14.86-8.496-20.532-5.435-5.435-11.93-8.256-19.533-8.482z" transform="translate(-30)"/>
</svg>
