<svg xmlns="http://www.w3.org/2000/svg" width="66" height="100" viewBox="0 0 66 100">
    <defs>
        <linearGradient id="a" x1="0%" y1="0%" y2="100%">
            <stop offset="0%" stop-color="#0B298E"/>
            <stop offset="100%" stop-color="#9700C9"/>
        </linearGradient>
        <linearGradient id="b" x1="-42.666%" y1="-30.993%" y2="100%">
            <stop offset="0%" stop-color="#0B298E"/>
            <stop offset="100%" stop-color="#9700C9"/>
        </linearGradient>
    </defs>
    <g fill="none" fill-rule="evenodd" stroke-width="2">
        <path stroke="url(#a)" d="M1.004 1l.386 97h13.643l.386-97H1.004zm31.599 48.302l3.47 3.3v-6.677l-3.47 3.377zm20.004 48.426H62V87.112l-9.393 10.616z" transform="translate(0 1)"/>
        <path stroke="url(#b)" d="M54.43 16c2.133 0 3.905-.725 5.375-2.195C61.277 12.333 62 10.606 62 8.57c0-2.132-.725-3.904-2.195-5.374C58.335 1.725 56.563 1 54.431 1c-2.037 0-3.764.723-5.236 2.195C47.725 4.665 47 6.437 47 8.569c0 2.037.723 3.764 2.195 5.236S52.394 16 54.43 16z" transform="translate(0 1)"/>
    </g>
</svg>
